<svg id="_2D_Tagline" data-name="2D Tagline" xmlns="http://www.w3.org/2000/svg" viewBox="0 0 560.15 173.49"><defs><style>.cls-1{fill:#222720;}</style></defs><title>Artboard 3</title><g id="_Grupp_" data-name="&lt;Grupp&gt;"><g id="_Grupp_2" data-name="&lt;Grupp&gt;"><g id="_Grupp_3" data-name="&lt;Grupp&gt;"><g id="_Grupp_4" data-name="&lt;Grupp&gt;"><g id="_Grupp_5" data-name="&lt;Grupp&gt;"><g id="_Grupp_6" data-name="&lt;Grupp&gt;"><path id="_Bana_" data-name="&lt;Bana&gt;" class="cls-1" d="M128.74,23.7l-2.61,3.92c17.49,7.19,24.55,20.25,24.55,34.24,0,7-1.89,13.32-5.58,13.32H99.26C93,75.17,91.16,73,94,67.4c5-9.89,20-28.82,29.3-40.21,1.35-1.67,2.46-4.28-2.4-5.58s-13-1.88-19.82-1.88c-34.48,0-58.51,18.65-58.51,42.68,0,22.12,20.84,42.78,58.43,42.78,16.61,0,37-4.67,48.53-17.76h-10C128.28,97.59,113.59,99.91,101,99.91c-30.33,0-49.53-15.75-49.53-37.5,0-20.06,21.73-38.07,49.15-38.07,3.28,0,4.35.71.88,5-7,8.71-19.54,26-25.42,36.06C69.82,76.23,76.25,85,90.42,85h57.35c3.54,0,5.56-2,7.62-5.68a34.84,34.84,0,0,0,4.24-16.94C159.63,46.11,147.4,31.12,128.74,23.7Z"/></g></g></g></g><g id="_Grupp_7" data-name="&lt;Grupp&gt;"><g id="_Grupp_8" data-name="&lt;Grupp&gt;"><g id="_Grupp_9" data-name="&lt;Grupp&gt;"><g id="_Grupp_10" data-name="&lt;Grupp&gt;"><g id="_Grupp_11" data-name="&lt;Grupp&gt;"><path id="_Stansad_bana_" data-name="&lt;Stansad bana&gt;" class="cls-1" d="M503,59.27H464.09c1.26-5,5.13-8.39,12.37-8.39h37.21V42.52H474.11c-22.55,0-27.92,16-27.92,25.09h48.17c6.61,0,6.61,8.91.23,8.91l-53.25,0v-34h-16v34H398.7c-7.13,0-10.13-3.42-10.13-8.71,0-6.37,0-25.31,0-25.31H362.87L339.91,57l-19.8-14.46h-57c-16.49,0-28.21,9.63-29.57,21.68h10.7a24.82,24.82,0,0,0-9.46,12.42H201.14c-6.35,0-9.32-3.31-9.32-9.52V42.52h-16.1v20.9C175.73,76.7,183,85,199.29,85H311.61l23.07-14.54L354.57,85h23.72L347.42,62.48,372.5,46.69V70.58C372.5,78,382.09,85,390.83,85H503.06C522.56,85,522.45,59.27,503,59.27ZM308.73,76.62H254.22c.56-4.56,2.92-9.09,10.35-9.09h33.79V59.22h-45c.78-3.44,4.28-8.33,12.38-8.33h35.74V46.27L327.17,65Z"/></g></g></g></g></g></g></g><path class="cls-1" d="M176.58,131V112.09h10.56v2.43h-8v6H187V123h-7.79v5.56h8.46V131Z"/><path class="cls-1" d="M206.21,131,202,124.54c-.31-.47-.8-1.32-.8-1.32s-.49.83-.85,1.37L196.15,131h-3l6.55-10-5.8-8.93h3.18l3.62,5.59c.29.44.6,1,.6,1a11.88,11.88,0,0,1,.62-1l3.65-5.54h3l-5.77,8.8L209.34,131Z"/><path class="cls-1" d="M222,123.56H218.4V131h-2.59V112.09h5.67c3.83,0,6.18,2.54,6.18,5.82A5.8,5.8,0,0,1,222,123.56Zm-.88-9H218.4v6.6h2.85c2.17,0,3.73-1.22,3.73-3.36S223.5,114.53,221.09,114.53Z"/><path class="cls-1" d="M234.57,131V112.09h10.56v2.43h-8v6H245V123h-7.79v5.56h8.46V131Z"/><path class="cls-1" d="M264.28,131l-7.63-8.82V131h-2.59V112.09h6.11a5.55,5.55,0,0,1,5.85,5.56,5.47,5.47,0,0,1-5.38,5.41l7,7.92Zm-4.58-16.46h-3.05V121h3a3.27,3.27,0,1,0,.05-6.5Z"/><path class="cls-1" d="M274.81,131V112.09h2.59V131Z"/><path class="cls-1" d="M286.48,131V112.09H297v2.43h-8v6h7.79V123h-7.79v5.56h8.46V131Z"/><path class="cls-1" d="M318.78,131l-9.91-13.69-.34-.52s.05.41.05.62V131H306V112.09h2.2L318,125.52a5.3,5.3,0,0,1,.34.54,6.21,6.21,0,0,1-.05-.62V112.09h2.59V131Z"/><path class="cls-1" d="M337,131.29a9.45,9.45,0,0,1-9.26-9.76c0-5.46,3.93-9.76,9.37-9.76a8.43,8.43,0,0,1,7,2.95l-1.91,1.71a6.71,6.71,0,0,0-5-2.12c-3.67,0-6.73,2.85-6.73,7.17a6.9,6.9,0,0,0,6.62,7.27,7.26,7.26,0,0,0,5.54-2.61l1.86,1.6A9.1,9.1,0,0,1,337,131.29Z"/><path class="cls-1" d="M351.12,131V112.09h10.56v2.43h-8v6h7.79V123h-7.79v5.56h8.46V131Z"/><path class="cls-1" d="M390.53,131l-2.28-6.11h-6L379.95,131H377.2l7.25-18.89h1.66L393.4,131Zm-5.15-13.82c-.08-.21-.16-.52-.16-.52s-.08.31-.13.49l-2,5.3h4.22Z"/><path class="cls-1" d="M415.42,131v-13.9a6.5,6.5,0,0,1,.05-.72,3.38,3.38,0,0,1-.26.44l-5.93,8h-1l-6-7.79a3.93,3.93,0,0,1-.26-.41,5.67,5.67,0,0,1,.05.7V131h-2.59V112.09h2.2l7.12,9.24,6.91-9.24H418V131Z"/><path class="cls-1" d="M437.42,131l-2.28-6.11h-6L426.83,131h-2.74l7.25-18.89H433l7.3,18.89Zm-5.15-13.82c-.08-.21-.16-.52-.16-.52s-.08.31-.13.49l-2,5.3h4.22Z"/><path class="cls-1" d="M449.32,128.08a2.53,2.53,0,0,1-.31.39s.31,0,.54,0H459V131H444.53l9.89-15.89c.16-.23.36-.49.36-.49s-.28,0-.54,0h-8.07v-2.54h13.17Z"/><path class="cls-1" d="M466.32,131V112.09h2.59V131Z"/><path class="cls-1" d="M490.75,131l-9.91-13.69-.34-.52s.05.41.05.62V131H478V112.09h2.2l9.78,13.43a5.5,5.5,0,0,1,.34.54,6.21,6.21,0,0,1-.05-.62V112.09h2.59V131Z"/><path class="cls-1" d="M508.6,131.29a9.69,9.69,0,0,1-9.57-9.76,9.46,9.46,0,0,1,9.6-9.76,9.92,9.92,0,0,1,7,2.56L514,116.26a7.88,7.88,0,0,0-5.43-1.94c-3.8,0-6.86,2.87-6.86,7.25a7.18,7.18,0,0,0,7,7.19,5.55,5.55,0,0,0,5.56-3.8h-5.69v-2.43h8.69A8.67,8.67,0,0,1,508.6,131.29Z"/></svg>